<?xml version="1.0" encoding="UTF-8" standalone="no"?>
<!DOCTYPE svg PUBLIC "-//W3C//DTD SVG 1.1//EN" "http://www.w3.org/Graphics/SVG/1.1/DTD/svg11.dtd">
<!-- Generated by Microsoft Visio, SVG Export DiagramaServidorFinSolicitud.svg Page-2 -->
<svg xmlns="http://www.w3.org/2000/svg" xmlns:xlink="http://www.w3.org/1999/xlink" xmlns:ev="http://www.w3.org/2001/xml-events"
		width="8.5in" height="11in" viewBox="0 0 612 792" xml:space="preserve" color-interpolation-filters="sRGB" class="st14">
	<style type="text/css">
	<![CDATA[
		.st1 {fill:#5b9ad4}
		.st2 {stroke:#ffffff;stroke-linecap:round;stroke-linejoin:round;stroke-width:1}
		.st3 {fill:#ffffff;font-family:Calibri;font-size:0.666664em}
		.st4 {marker-end:url(#mrkr4-12);stroke:#9c9c9c;stroke-linecap:round;stroke-linejoin:round;stroke-width:0.5}
		.st5 {fill:#9c9c9c;fill-opacity:1;stroke:#9c9c9c;stroke-opacity:1;stroke-width:0.16556291390728}
		.st6 {fill:#ffffff;stroke:#a5a5a5;stroke-linecap:round;stroke-linejoin:round;stroke-width:2}
		.st7 {fill:#5c5c5c;font-family:Calibri;font-size:0.666664em}
		.st8 {font-size:1em}
		.st9 {fill:#ffffff;stroke:#febf01;stroke-linecap:round;stroke-linejoin:round;stroke-width:2}
		.st10 {fill:#8d6b01;font-family:Calibri;font-size:0.666664em}
		.st11 {fill:#ffffff;stroke:none;stroke-linecap:butt;stroke-width:7.2}
		.st12 {fill:#7b7b7b;font-family:Calibri;font-size:0.666664em}
		.st13 {fill:#ffffff;stroke:none;stroke-linecap:butt}
		.st14 {fill:none;fill-rule:evenodd;font-size:12px;overflow:visible;stroke-linecap:square;stroke-miterlimit:3}
	]]>
	</style>

	<defs id="Markers">
		<g id="lend4">
			<path d="M 2 1 L 0 0 L 2 -1 L 2 1 " style="stroke:none"/>
		</g>
		<marker id="mrkr4-12" class="st5" refX="-12.08" orient="auto" markerUnits="strokeWidth" overflow="visible">
			<use xlink:href="#lend4" transform="scale(-6.04,-6.04) "/>
		</marker>
	</defs>
	<g>
		<title>EnviarSolicitud</title>
		<g id="shape1-1" transform="translate(54,-751.5)">
			<title>Subprocess.277</title>
			<desc>Estado(X)</desc>
			<path d="M0 792 L72 792 L72 774 L0 774 L0 792 Z" class="st1"/>
			<path d="M0 792 L72 792 L72 774 L0 774 L0 792" class="st2"/>
			<path d="M9 792 L9 774" class="st2"/>
			<path d="M63 792 L63 774" class="st2"/>
			<text x="20.51" y="785.4" class="st3">Estado(X)</text>		</g>
		<g id="shape2-7" transform="translate(126,-760.5)">
			<title>Dynamic connector.279</title>
			<path d="M0 792 L69.75 792 L69.75 826.46" class="st4"/>
		</g>
		<g id="shape3-13" transform="translate(216,-580.5)">
			<title>Process.278</title>
			<desc>Añade al código y mensaje de estado el campo: Server</desc>
			<rect x="0" y="760.5" width="72" height="31.5" class="st6"/>
			<text x="7.41" y="769.05" class="st7">Añade al código y <tspan x="5.36" dy="1.2em" class="st8">mensaje de estado </tspan><tspan
						x="8.79" dy="1.2em" class="st8">el campo</tspan>: Server</text>		</g>
		<g id="shape4-18" transform="translate(288,-596.25)">
			<title>Dynamic connector.281</title>
			<path d="M0 792 L18 792 L18 683.98 L72.71 683.98" class="st4"/>
		</g>
		<g id="shape5-23" transform="translate(366.75,-688.536)">
			<title>Process.282</title>
			<desc>Calcula la longitud del cuerpo de la respuesta que se va a en...</desc>
			<rect x="0" y="760.536" width="117" height="31.464" class="st6"/>
			<text x="5.59" y="769.07" class="st7">Calcula la longitud del cuerpo de <tspan x="5.05" dy="1.2em" class="st8">la respuesta que se va a enviar</tspan>, y <tspan
						x="7.24" dy="1.2em" class="st8">lo agrega como Content</tspan>-Length</text>		</g>
		<g id="shape7-28" transform="translate(391.5,-569.25)">
			<title>Decision.284</title>
			<desc>Se tiene el Content-Type del archivo</desc>
			<path d="M0 765 L33.75 738 L67.5 765 L33.75 792 L0 765 Z" class="st9"/>
			<text x="16.87" y="757.8" class="st10">Se tiene el <tspan x="11.56" dy="1.2em" class="st8">Content</tspan>-Type <tspan
						x="15.9" dy="1.2em" class="st8">del archivo</tspan></text>		</g>
		<g id="shape8-33" transform="translate(391.5,-596.25)">
			<title>Dynamic connector.287</title>
			<desc>No</desc>
			<path d="M0 792 L-45 792 L-45 828.71" class="st4"/>
			<rect x="-48.5664" y="787.2" width="9.38287" height="9.59985" class="st11"/>
			<text x="-48.57" y="794.4" class="st12">No</text>		</g>
		<g id="shape9-40" transform="translate(310.5,-522)">
			<title>Process.286</title>
			<desc>Agrega la fecha y hora del servidor (Campo Date)</desc>
			<rect x="0" y="760.5" width="72" height="31.5" class="st6"/>
			<text x="8.34" y="769.05" class="st7">Agrega la fecha y <tspan x="8.38" dy="1.2em" class="st8">hora del servidor </tspan><tspan
						x="13.51" dy="1.2em" class="st8">(</tspan>Campo Date)</text>		</g>
		<g id="shape10-45" transform="translate(486,-522)">
			<title>Process.280</title>
			<desc>Añade el Content-Type del archivo</desc>
			<rect x="0" y="760.5" width="67.5" height="31.5" class="st6"/>
			<text x="4.27" y="773.85" class="st7">Añade el Content-<tspan x="7.14" dy="1.2em" class="st8">Type del archivo </tspan></text>		</g>
		<g id="shape11-49" transform="translate(459,-596.25)">
			<title>Dynamic connector.291</title>
			<desc>Sí</desc>
			<path d="M0 792 L60.75 792 L60.75 828.71" class="st4"/>
			<rect x="37.0518" y="787.2" width="5.51157" height="9.59985" class="st11"/>
			<text x="37.05" y="794.4" class="st12">Sí</text>		</g>
		<g id="shape12-56" transform="translate(150.75,-666)">
			<title>Decision.295</title>
			<desc>Solicitud CGI o Archivo leído en modo binario</desc>
			<path d="M0 765 L45 738 L90 765 L45 792 L0 765 Z" class="st9"/>
			<text x="21.48" y="757.8" class="st10">Solicitud CGI o <tspan x="18.73" dy="1.2em" class="st8">Archivo leído en </tspan><tspan
						x="23.12" dy="1.2em" class="st8">modo binario</tspan></text>		</g>
		<g id="shape13-61" transform="translate(237.375,-693)">
			<title>Dynamic connector.296</title>
			<desc>Sí</desc>
			<path d="M3.37 792 L14.62 792 L14.62 866.96" class="st4"/>
			<rect x="11.8691" y="822.075" width="5.51157" height="9.59985" class="st11"/>
			<text x="11.87" y="829.28" class="st12">Sí</text>		</g>
		<g id="shape14-68" transform="translate(108,-587.25)">
			<title>Process.297</title>
			<desc>Codificar el cuerpo del mensaje</desc>
			<rect x="0" y="774" width="72" height="18" class="st6"/>
			<text x="5.49" y="780.6" class="st7">Codificar el cuerpo <tspan x="16.37" dy="1.2em" class="st8">del mensaje</tspan></text>		</g>
		<g id="shape15-72" transform="translate(156.375,-693)">
			<title>Dynamic connector.298</title>
			<desc>No</desc>
			<path d="M-5.63 792 L-12.38 792 L-12.38 873.71" class="st4"/>
			<rect x="-17.0664" y="827.7" width="9.38287" height="9.59985" class="st13"/>
			<text x="-17.07" y="834.9" class="st12">No</text>		</g>
		<g id="shape16-79" transform="translate(180,-587.25)">
			<title>Dynamic connector.299</title>
			<path d="M0 783 L29.96 783" class="st4"/>
		</g>
		<g id="shape17-84" transform="translate(486,-528.75)">
			<title>Dynamic connector.300</title>
			<path d="M0 783 L-97.46 783" class="st4"/>
		</g>
		<g id="shape18-89" transform="translate(310.5,-528.75)">
			<title>Dynamic connector.302</title>
			<path d="M0 783 L-29.96 783" class="st4"/>
		</g>
		<g id="shape19-94" transform="translate(202.5,-525.938)">
			<title>Process.301</title>
			<desc>Codifica los datos de la cabecera</desc>
			<rect x="0" y="768.375" width="72" height="23.625" class="st6"/>
			<text x="2.56" y="777.79" class="st7">Codifica los datos de <tspan x="17.57" dy="1.2em" class="st8">la cabecera</tspan></text>		</g>
		<g id="shape20-98" transform="translate(416.25,-688.536)">
			<title>Dynamic connector</title>
			<path d="M9 792 L9 851.25" class="st4"/>
		</g>
		<g id="shape22-103" transform="translate(202.5,-537.75)">
			<title>Dynamic connector.22</title>
			<path d="M0 792 L-31.5 792 L-31.5 812.4" class="st4"/>
		</g>
		<g id="shape21-108" transform="translate(126,-443.813)">
			<title>Decision.13</title>
			<desc>El método de las solicitud es HEAD</desc>
			<path d="M0 758.25 L45 724.5 L90 758.25 L45 792 L0 758.25 Z" class="st9"/>
			<text x="18.08" y="755.85" class="st10">El método de las <tspan x="16.75" dy="1.2em" class="st8">solicitud es HEAD</tspan></text>		</g>
		<g id="shape24-112" transform="translate(216,-477.563)">
			<title>Dynamic connector.24</title>
			<path d="M0 792 L81 792 L81 827.59" class="st4"/>
		</g>
		<g id="shape23-117" transform="translate(261,-412.313)">
			<title>Process.14</title>
			<desc>Enviar los datos por el socket</desc>
			<rect x="0" y="768.375" width="72" height="23.625" class="st6"/>
			<text x="3.97" y="777.79" class="st7">Enviar los datos por <tspan x="21.67" dy="1.2em" class="st8">el socket</tspan></text>		</g>
		<g id="shape26-121" transform="translate(126,-477.563)">
			<title>Dynamic connector.26</title>
			<path d="M0 792 L-72 792 L-72 827.59" class="st4"/>
		</g>
		<g id="shape25-126" transform="translate(18,-412.313)">
			<title>Process.14.25</title>
			<desc>Unir la cabecera y el cuerpo del mensaje</desc>
			<rect x="0" y="768.375" width="72" height="23.625" class="st6"/>
			<text x="3.16" y="777.79" class="st7">Unir la cabecera y el <tspan x="4.08" dy="1.2em" class="st8">cuerpo del mensaje</tspan></text>		</g>
		<g id="shape27-130" transform="translate(54,-413.438)">
			<title>Dynamic connector.27</title>
			<path d="M0 793.12 L0 808.88 L83.96 808.88" class="st4"/>
		</g>
		<g id="shape28-135" transform="translate(144,-384.75)">
			<title>Process.14.28</title>
			<desc>Cerrar el socket</desc>
			<rect x="0" y="768.375" width="72" height="23.625" class="st6"/>
			<text x="10.55" y="782.59" class="st7">Cerrar el socket</text>		</g>
		<g id="shape29-138" transform="translate(297,-413.438)">
			<title>Dynamic connector.29</title>
			<path d="M0 793.12 L0 808.88 L-74.96 808.88" class="st4"/>
		</g>
		<g id="shape30-143" transform="translate(432,-412.313)">
			<title>Start/End.11</title>
			<desc>Fin Solicitud</desc>
			<path d="M13.5 792 L58.5 792 A13.5 13.5 -180 0 0 58.5 765 L13.5 765 A13.5 13.5 -180 1 0 13.5 792 Z" class="st9"/>
			<text x="16.3" y="780.9" class="st10">Fin Solicitud</text>		</g>
		<g id="shape40-146" transform="translate(180,-384.75)">
			<title>Dynamic connector.40</title>
			<path d="M0 792 L0 810 L288 810 L288 770.48" class="st4"/>
		</g>
	</g>
</svg>
